<!-- https://fonts.google.com/icons?selected=Material%20Symbols%20Rounded%3Acheck_circle%3AFILL%400%3Bwght%40400%3BGRAD%40200%3Bopsz%4020 -->
<svg xmlns="http://www.w3.org/2000/svg" height="20" viewBox="0 -960 960 960" width="20"><path fill="currentColor" d="m429-454-53-52q-15-15-34-15t-34 15q-15 15-15 34.5t15 34.5l87 87q14.818 15 33.909 15T463-350l191-191q15-15 15-34.5T654-610q-15-15-34-15t-34 15L429-454Zm51 390q-85.64 0-161.48-32.52-75.84-32.52-132.66-89.34-56.82-56.82-89.34-132.66T64-480q0-86.896 32.579-162.461 32.579-75.566 89.5-132.552Q243-832 318.738-864 394.476-896 480-896q86.886 0 162.443 32Q718-832 775-775q57 57 89 132.583 32 75.584 32 162.5Q896-394 864-318.5t-88.987 132.421q-56.986 56.921-132.552 89.5Q566.896-64 480-64Zm0-98q132.513 0 225.256-92.744Q798-347.487 798-480t-92.744-225.256Q612.513-798 480-798t-225.256 92.744Q162-612.513 162-480t92.744 225.256Q347.487-162 480-162Zm0-318Z"/></svg>
