<!-- https://fonts.google.com/icons?selected=Material%20Symbols%20Rounded%3Aerror%3AFILL%400%3Bwght%40400%3BGRAD%40200%3Bopsz%4020 -->
<svg xmlns="http://www.w3.org/2000/svg" height="20" viewBox="0 -960 960 960" width="20"><path fill="currentColor" d="M479.614-272Q499-272 512.5-285.114q13.5-13.114 13.5-32.5T512.886-350.5q-13.114-13.5-32.5-13.5T447.5-350.886q-13.5 13.114-13.5 32.5t13.114 32.886q13.114 13.5 32.5 13.5Zm1.175-162Q501-434 515.5-448.35T530-483v-148q0-20.3-14.289-34.65-14.29-14.35-34.5-14.35Q461-680 446.5-665.65T432-631v148q0 20.3 14.289 34.65 14.29 14.35 34.5 14.35Zm-.513 370Q394.36-64 318.52-96.52t-132.66-89.34q-56.82-56.82-89.34-132.618Q64-394.277 64-480.458q0-86.438 32.579-162.003 32.579-75.566 89.5-132.552Q243-832 318.696-864q75.697-32 161.762-32 86.428 0 161.985 32Q718-832 775-775q57 57 89 132.808 32 75.807 32 162Q896-394 864-318.5q-32 75.5-88.987 132.421-56.986 56.921-132.776 89.5Q566.447-64 480.276-64ZM480-162q132.513 0 225.256-92.744Q798-347.487 798-480t-92.744-225.256Q612.513-798 480-798t-225.256 92.744Q162-612.513 162-480t92.744 225.256Q347.487-162 480-162Zm0-318Z"/></svg>
