<svg xmlns="http://www.w3.org/2000/svg" viewBox="0 0 1520.13 321.66" id="{{ include.id }}" {{ include.attributes }}>
  <title>Qi Tianshi</title>
  <defs>
    <g class="c-drawable-graphic__mask">
      <mask id="{{ include.id }}__mask-0">
        <path d="M208.31,33a13.23,13.23,0,0,0-2-9c-3.52-5.13-11.22-5.11-16-5-28.37.69-49,8-49,8-15.06,5.35-31.37,11.13-51,24a197.63,197.63,0,0,0-43,38c-9,10.8-19.62,23.78-27,44-3.74,10.28-9.38,26.27-7,47a89.25,89.25,0,0,0,10,32c3.36,6.18,7.12,13.4,15,20a59.1,59.1,0,0,0,15,9,74.35,74.35,0,0,0,18,5c3.13.49,11.79,1.67,28,0a191.41,191.41,0,0,0,32-6c30.28-8.56,52.2-23.05,67-33,14.24-9.56,26.65-18,40-33,14.43-16.17,21.18-30.1,23-34a113.41,113.41,0,0,0,10-33c1.66-12.66.34-21,0-23a52.83,52.83,0,0,0-7-20,38.37,38.37,0,0,0-12-13,39.59,39.59,0,0,0-12-5c-6.43-1.77-11.39-1.87-18-2a105.43,105.43,0,0,0-18,1,87.71,87.71,0,0,0-20,5,86.26,86.26,0,0,0-17,9,124.49,124.49,0,0,0-23,20" fill="none" stroke="red" stroke-linecap="round" stroke-miterlimit="10" stroke-width="25.5"/>
      </mask><mask id="{{ include.id }}__mask-1">
        <path d="M49.81,204.5c.42-3.48,2.75-7.05,6-11a13.54,13.54,0,0,1,7-5,39.47,39.47,0,0,1,9-2c4.53-.42,8.19-1.29,16.5-.34,4.7.54,6.35.87,7,1a66.61,66.61,0,0,1,10,3c.93.35,3,1.14,9,4,6.29,3,9.5,4.5,14,7s8,4.71,10,6c0,0,5.09,3.3,10,7,13.36,10.07,26.89,25.33,31,30,7.79,8.84,13.43,16.18,17,21,7.92,10.72,12.37,16.81,16,26a78.6,78.6,0,0,1,5,20" fill="none" stroke="red" stroke-linecap="round" stroke-miterlimit="10" stroke-width="21"/>
      </mask><mask id="{{ include.id }}__mask-2">
        <g>
          <path d="M349.31,123c-1,5.49-3.51,14.08-9,25-5,10-5.91,13.35-11,26a185.14,185.14,0,0,0-9,28c-2.2,9.52-2.46,14.43,0,19a19.21,19.21,0,0,0,9,8" fill="none" stroke="red" stroke-linecap="round" stroke-miterlimit="10" stroke-width="25"/>
          <path d="M385.31,57q-5.49,12-11,24" fill="none" stroke="red" stroke-linecap="round" stroke-miterlimit="10" stroke-width="23"/>
        </g>
      </mask><mask id="{{ include.id }}__mask-3">
        <g>
          <path d="M506.31,70c3.67-2,9.24-5.13,16-9,13.57-7.76,16.19-9.59,23-13a218.18,218.18,0,0,1,21-9c7.37-2.83,17-7,27.5-10.5a192.51,192.51,0,0,1,25-6c16.28-2.8,29.39-1.53,51.5.5,5.1.47,11.68,0,20,2,5.86,1.43,10,2.7,14,5s8.7,5,10,10c.21.8.6,2.68-1,9a77.87,77.87,0,0,1-5,14" fill="none" stroke="red" stroke-linecap="round" stroke-miterlimit="10" stroke-width="23"/>
          <path d="M627.81,46.5c-1.48,4.18-3.82,7.48-7,15C614.27,77,608.27,85.34,604.31,93c-7.88,15.26-12.13,26.76-20,48-5.76,15.59-9.53,28.05-17,53,0,0-1.1,3.7-5,23-1.16,5.77-.57,8.91-1,13-.85,8.14,4.23,13,9,15" fill="none" stroke="red" stroke-linecap="round" stroke-miterlimit="10" stroke-width="25"/>
        </g>
      </mask><mask id="{{ include.id }}__mask-4">
        <g>
          <path d="M730.22,123.92c-1,5.49-3.51,14.08-9,25-5,10-5.91,13.35-11,26a185.52,185.52,0,0,0-9,28c-2.2,9.52-2.46,14.43,0,19a19.11,19.11,0,0,0,9,8" fill="none" stroke="red" stroke-linecap="round" stroke-miterlimit="10" stroke-width="25"/>
          <path d="M766.22,57.92q-5.49,12-11,24" fill="none" stroke="red" stroke-linecap="round" stroke-miterlimit="10" stroke-width="23"/>
        </g>
      </mask><mask id="{{ include.id }}__mask-5">
        <g>
          <path d="M846.31,101a41.1,41.1,0,0,1,7-8,46.22,46.22,0,0,1,9-6,40.2,40.2,0,0,1,9-4c4.18-1.16,7.38-1.09,12-1,6.52.14,9.94.21,14,2a24.57,24.57,0,0,1,9,7c5.52,6.52,6.32,14,7,20a61.68,61.68,0,0,1,0,13c-.61,7.72-.5,12.5-2.5,21.5a136.92,136.92,0,0,1-9,28c-4.55,10.62-7.65,19.65-14.5,30.5a114.87,114.87,0,0,1-15,19" fill="none" stroke="red" stroke-linecap="round" stroke-miterlimit="10" stroke-width="23"/>
          <path d="M893.31,171a35,35,0,0,0-5-11c-4.51-6.58-10.13-9.82-14-12-6.36-3.58-11.84-4.82-17-6a80.27,80.27,0,0,0-16-2,78,78,0,0,0-23,3,81.3,81.3,0,0,0-20,9c-7.07,4.2-13.84,8.21-20,16a45.26,45.26,0,0,0-9,17,31.79,31.79,0,0,0-1,15,28.68,28.68,0,0,0,9,16c5.14,4.48,10.49,5.62,17,7a68.65,68.65,0,0,0,36-3,54.59,54.59,0,0,0,19-13" fill="none" stroke="red" stroke-linecap="round" stroke-miterlimit="10" stroke-width="23"/>
        </g>
      </mask><mask id="{{ include.id }}__mask-6">
        <g>
          <path d="M975.81,122.5c-4,9-6,21-12.5,32.5-7.65,13.54-14.22,37.55-18,69" fill="none" stroke="red" stroke-linecap="round" stroke-miterlimit="10" stroke-width="25"/>
          <path d="M953.31,210.36c5.07-5.21,12.63-12.87,22-22,15.2-14.79,23-22.34,33-30,8.38-6.42,15.26-10.61,29-19,0,0,12.41-7.57,40-18a17.34,17.34,0,0,1,10-1,13.57,13.57,0,0,1,6,3,14.35,14.35,0,0,1,4,7c1.42,5.11.48,9.76-1,15-2.35,8.32-4.22,11.59-7,19a166.21,166.21,0,0,0-6,20,144.82,144.82,0,0,0-4,23,110,110,0,0,0,3,35" fill="none" stroke="red" stroke-linecap="round" stroke-miterlimit="10" stroke-width="31"/>
        </g>
      </mask><mask id="{{ include.id }}__mask-7">
        <path d="M1239.31,97a39.46,39.46,0,0,0-10-7c-7-3.39-13-3.75-18-4a68.79,68.79,0,0,0-33,7c-9.46,4.36-13.07,8.36-15,11-1.61,2.23-3.91,5.48-4,10s2.11,8,4,11a34.6,34.6,0,0,0,7,8c11.07,9.23,22.89,13.44,38,24,5.68,4,8.51,6.52,11,10,1.72,2.4,6.65,9.26,6,18-.29,3.95-1.67,7.7-6,14a95.63,95.63,0,0,1-21,22c-9.22,6.92-28.12,20.76-57,26a126.74,126.74,0,0,1-26,2" fill="none" stroke="red" stroke-linecap="round" stroke-miterlimit="10" stroke-width="28"/>
      </mask><mask id="{{ include.id }}__mask-8">
        <g>
          <path d="M1350.91,12.5c-4.8,10.6-11.42,22.78-21.5,42.5-11.5,22.5-17.5,37.5-19.5,41.5-10.77,21.55-28.86,55.55-33.5,113.5" fill="none" stroke="red" stroke-linecap="round" stroke-miterlimit="10" stroke-width="25"/>
          <path d="M1284.31,195c5.31-6.22,12.35-14.14,21-23a278.31,278.31,0,0,1,21-20c9.19-7.75,16.1-12.38,26-19a153.56,153.56,0,0,1,25-13,29.54,29.54,0,0,1,10-2c3.25-.08,6.57-.16,9,2,.73.65,2.16,2.18,3,8a44.58,44.58,0,0,1,0,13,95.5,95.5,0,0,1-5,19c-5.44,14.55-7.07,13.82-11,25-1.83,5.24-3.22,11.16-6,23s-3,14.55-3,16a46.52,46.52,0,0,0,5,22" fill="none" stroke="red" stroke-linecap="round" stroke-miterlimit="10" stroke-width="24"/>
        </g>
      </mask><mask id="{{ include.id }}__mask-9">
        <g>
          <path d="M1472.63,124.09c-1,5.48-3.52,14.07-9,25-5,10-5.92,13.35-11,26a182.49,182.49,0,0,0-9,28c-2.2,9.52-2.47,14.43,0,19a19.17,19.17,0,0,0,9,8" fill="none" stroke="red" stroke-linecap="round" stroke-miterlimit="10" stroke-width="25"/>
          <path d="M1508.63,58.09q-5.51,12-11,24" fill="none" stroke="red" stroke-linecap="round" stroke-miterlimit="10" stroke-width="23"/>
        </g>
      </mask>
    </g>
  </defs>
  <g class="c-drawable-graphic__graphic">
    <path mask="url(#{{ include.id }}__mask-0)" d="M161.07,237q-41.2,17.21-77.6,17.21c-2.4,0-4.74-.07-7-.21s-4.47-.33-6.6-.6q-24-2.79-38.6-14.19a66,66,0,0,1-21.2-28,93.9,93.9,0,0,1-6.6-35,123.26,123.26,0,0,1,4.2-31.8,118.77,118.77,0,0,1,11.8-29q16.8-29.21,39-49a216,216,0,0,1,45.8-31.81q23.6-12,44.6-17.19t35-5.21c1.33,0,3.06-.06,5.2-.2s4.4-.19,6.8-.19a40.53,40.53,0,0,1,11.2,1.6,15.06,15.06,0,0,1,8.8,6.59q3.19,5,1.6,15.41a24.62,24.62,0,0,1-3.6,2.79,28.66,28.66,0,0,1,4.6-.39h4.2q25.2,0,42.2,13t17,39a118.15,118.15,0,0,1-14.8,58,171.46,171.46,0,0,1-38.8,47.4,254.53,254.53,0,0,1-52,34.6S174,231,161.07,237Zm2.8-19.19A240.56,240.56,0,0,0,211.27,187a163.43,163.43,0,0,0,36-41.19q13.8-22.82,13.8-48,0-21.6-9.4-34.81t-33-13.19h-4.8a29.88,29.88,0,0,0-4.8.39A76.38,76.38,0,0,0,176.87,61a137.92,137.92,0,0,0-27,20.81q-2.81,2.79-5.6,2.79-4.8,0-4.8-6a12.2,12.2,0,0,1,4-8.79A105.22,105.22,0,0,1,168.67,51a118.41,118.41,0,0,1,29.6-10.8q-3.6-1.59-3.6-3.2c0-1.33,1.46-2,4.4-2,1.06,0,0-1.06-3.2-3.19s-7.6-3.21-13.2-3.21q-11.21,0-29.6,4.21a192.3,192.3,0,0,0-80.6,41.39q-20.2,17.2-35.4,43.61a97.07,97.07,0,0,0-14,50.4,80.8,80.8,0,0,0,7.4,34.39,61.13,61.13,0,0,0,22.2,25.8q14.79,9.81,36.8,9.81a129.46,129.46,0,0,0,28-3.4,179.31,179.31,0,0,0,30.4-9.81C153,223,163.87,217.83,163.87,217.83Z" transform="translate(0 0)"/>
    <path mask="url(#{{ include.id }}__mask-1)" d="M176.27,229.83a252.62,252.62,0,0,1,29.6,35.59q13.2,19.21,18.4,38a4.56,4.56,0,0,1,.4,2v2a9.34,9.34,0,0,1-2.4,6.6,7,7,0,0,1-5.2,2.6q-5.2,0-6.8-6.79-4-16.81-18-36.41a272.83,272.83,0,0,0-31.2-36.4s-1.07-1-13.2-12q-19.2-16-35.6-22.79a82,82,0,0,0-18-5.4,92.65,92.65,0,0,0-15.2-1.41c-1.87,0-3.67.07-5.4.2a39.15,39.15,0,0,0-4.6.61c-4.27,1.06-6.74,2.53-7.4,4.39a54.21,54.21,0,0,1-3.4,7.21q-2.81,4.78-7.6,4.79a11,11,0,0,1-7.4-3,9.46,9.46,0,0,1-3.4-7.39,9.9,9.9,0,0,1,1.2-4.4h.4a80.13,80.13,0,0,1,8.8-13.21q4.4-5.19,14.8-7.2a59,59,0,0,1,11.6-1.19A63.17,63.17,0,0,1,95.07,179q9.2,2.8,20,7.21,23.19,9.59,48.8,31.6S165,219,176.27,229.83Z" transform="translate(0 0)"/>
    <path mask="url(#{{ include.id }}__mask-2)" d="M328.26,236.62q-6.39,0-12.6-5t-5-16.2a182.09,182.09,0,0,1,4.4-26.4,165.62,165.62,0,0,1,6.4-19.79q3.6-9,7.8-19.4t8.6-25.21q2.4-6.8,10-6.79a14.3,14.3,0,0,1,9.2,3.19q4,3.21,2.4,8.81A182.84,182.84,0,0,1,349.06,157q-5.19,10.41-9.6,18.21a95.49,95.49,0,0,0-7.4,16.79q-3,9-3.8,23c0,.81,1.74,2.47,5.2,5s5.2,5.4,5.2,8.6c0,2.4-1.33,4.54-4,6.4Q332.67,236.63,328.26,236.62ZM378.66,89q-2,2.4-5,.41a15,15,0,0,1-5-6.21,12.89,12.89,0,0,1-1.2-8.2h.4a39.2,39.2,0,0,1,4-10,42.64,42.64,0,0,1,6.4-8,8.7,8.7,0,0,1,6.4-2.4,10.9,10.9,0,0,1,6.6,2.21,6.49,6.49,0,0,1,3,5.39,7.21,7.21,0,0,1-1.2,3.61,73.6,73.6,0,0,0-4.6,8.39A84.48,84.48,0,0,1,378.66,89Z" transform="translate(0 0)"/>
    <path mask="url(#{{ include.id }}__mask-3)" d="M507.06,77c-1.07,0-2.14-.93-3.2-2.8a11.83,11.83,0,0,1-1.6-6q0-5.6,4.4-7.6a379.72,379.72,0,0,0,33.6-18.4,155.58,155.58,0,0,1,34.8-15.6,246,246,0,0,1,40.2-8.4,310.46,310.46,0,0,1,39-2.79h13.6a213.25,213.25,0,0,1,23.2,1.19,45.38,45.38,0,0,1,19.6,6.81q8.4,3.2,10.8,6.79a9.57,9.57,0,0,1,2,4.4,32.53,32.53,0,0,1,.4,5.21V43a19,19,0,0,1-.4,3.6c-.27,2.14-.6,4.6-1,7.4a12.87,12.87,0,0,1-3.8,7.41,11.5,11.5,0,0,1-6,4.79,22.49,22.49,0,0,1-4.4,1.21h-.8q-3.6,0-5-2a8.15,8.15,0,0,1-1.4-4.81,25.64,25.64,0,0,1,1.8-9.4,41.84,41.84,0,0,0,1.8-5v-.39q0-2.8-5.6-6.81a46,46,0,0,0-22.8-8q-13.2-1.2-29.2-1.19a161.42,161.42,0,0,0-32.6,3.79,299.2,299.2,0,0,0-37.6,10.6q-19.41,6.81-37.2,15a221.43,221.43,0,0,0-31.4,17.4A1.63,1.63,0,0,1,507.06,77Zm62.4,176.81q-6.4,0-12.6-5t-5-16.21q1.2-12.39,6.2-31.6t12.4-41.4q7.39-22.18,16-44.6t16.8-41.8q8.19-19.39,15-32.6,3.6-6.39,10-6.4a9.13,9.13,0,0,1,6.4,2.61c1.86,1.73,2.8,4.33,2.8,7.79a51.91,51.91,0,0,1-1,6.4,102.85,102.85,0,0,1-2.8,11,39.52,39.52,0,0,1-3.8,9,144,144,0,0,1-9.6,13.41,82.77,82.77,0,0,0-10,16.19q-19.6,41.2-29.4,73.8t-11.4,53a9.72,9.72,0,0,0,2.6,6l5.2,6.41a10.16,10.16,0,0,1,2.6,6.4c0,2.13-1.34,4.13-4,6C574.52,253.29,572.39,253.83,569.46,253.83Z" transform="translate(0 0)"/>
    <path mask="url(#{{ include.id }}__mask-4)" d="M709.06,236.62q-6.4,0-12.6-5t-5-16.2a179.39,179.39,0,0,1,4.4-26.4,163.84,163.84,0,0,1,6.4-19.79q3.6-9,7.8-19.4t8.6-25.21q2.4-6.8,10-6.79a14.34,14.34,0,0,1,9.2,3.19q4,3.21,2.4,8.81A185.08,185.08,0,0,1,729.86,157q-5.21,10.41-9.6,18.21a94.76,94.76,0,0,0-7.4,16.79q-3,9-3.8,23c0,.81,1.73,2.47,5.2,5s5.2,5.4,5.2,8.6c0,2.4-1.34,4.54-4,6.4Q713.45,236.63,709.06,236.62ZM759.46,89c-1.34,1.6-3,1.74-5,.41a14.94,14.94,0,0,1-5-6.21,12.75,12.75,0,0,1-1.2-8.2h.4a38.84,38.84,0,0,1,4-10,42.24,42.24,0,0,1,6.4-8,8.68,8.68,0,0,1,6.4-2.4,10.9,10.9,0,0,1,6.6,2.21,6.49,6.49,0,0,1,3,5.39,7.21,7.21,0,0,1-1.2,3.61,72,72,0,0,0-4.6,8.39A85.63,85.63,0,0,1,759.46,89Z" transform="translate(0 0)"/>
    <path mask="url(#{{ include.id }}__mask-5)" d="M803.85,233.42a52.17,52.17,0,0,1-21.8-4.8,46.75,46.75,0,0,1-17.4-13.2,29.66,29.66,0,0,1-6.8-19.19q0-16,8.4-28a76.14,76.14,0,0,1,21.4-20.4A113.09,113.09,0,0,1,814.25,135a90.67,90.67,0,0,1,28.8-4.4,89.47,89.47,0,0,1,31.8,5.81q15.4,5.79,21.8,19.79a148.54,148.54,0,0,0,4.8-20.6,116.26,116.26,0,0,0,1.6-17.79q0-12.81-5-19.61t-17.8-6.79q-5.21,0-12,3.79a68.07,68.07,0,0,0-13.2,9.8q-2.4,2.4-3.4,3.2c-.67.54-2.2.8-4.6.8a7.42,7.42,0,0,1-6.2-2.8,10,10,0,0,1-2.2-6.39,11.5,11.5,0,0,1,3.6-8.4q3.6-3.62,8-8a41.59,41.59,0,0,1,11.4-7.81q7-3.39,17.8-3.4,22.39,0,32.8,10.4t10.4,34a101.86,101.86,0,0,1-3,24q-3,12.4-7,26.4-2.4,8.8-6.6,19.81a142.18,142.18,0,0,1-10.6,21.79,69.57,69.57,0,0,1-15.6,18.4,9.08,9.08,0,0,1-6,2.4,9.25,9.25,0,0,1-6.8-2.8,8.78,8.78,0,0,1-2.8-6.39c0-2.4,1.2-4.81,3.6-7.21q4.39-3.6,9.4-11.6a108.34,108.34,0,0,0,9.4-20q-1.2-16.39-15.4-24a65.44,65.44,0,0,0-31.4-7.6,75.72,75.72,0,0,0-19.2,2.39,71.43,71.43,0,0,0-20,9.4,65.83,65.83,0,0,0-16.6,15.4q-6.6,8.8-6.6,18.4,0,7.61,7.8,13.6a29.61,29.61,0,0,0,18.6,6q9.2,0,14.6-.4a31.14,31.14,0,0,0,10.4-2.6,71.27,71.27,0,0,0,13-8.19c2.4-1.6,4.4-2.41,6-2.41a6.86,6.86,0,0,1,7.2,7.2q0,4.41-4.4,7.61-13.6,11.19-23.8,14.19A81.49,81.49,0,0,1,803.85,233.42Z" transform="translate(0 0)"/>
    <path mask="url(#{{ include.id }}__mask-6)" d="M1083.45,245.42q-6,0-11.2-7t-5.2-17.8a155.53,155.53,0,0,1,1.2-17.2,198,198,0,0,1,3.6-21,109.44,109.44,0,0,1,5.6-18.2q6.39-14.4,6.4-22.79,0-10.41-9.6-10.41h-2.8a7,7,0,0,0-3.2.81q-8,2.4-21.6,10.6t-28.6,19q-15,10.78-28.2,21.59a189.78,189.78,0,0,0-20.4,18.81A118.33,118.33,0,0,0,953.05,225c-2.14,2.94-4.54,4.4-7.2,4.4-2.4,0-4.4-1.26-6-3.8s-2-5.93-1.2-10.2a539.53,539.53,0,0,1,12.2-56q6.6-23.2,15.4-40,3.6-6.41,10-6.41a9.16,9.16,0,0,1,6.4,2.6c1.86,1.74,2.8,4.34,2.8,7.81q0,2.79-2.2,10.79a51.43,51.43,0,0,1-5.4,13.21,63.45,63.45,0,0,0-6.6,14.59q-2.61,8.21-6.2,22.6a54.15,54.15,0,0,1,7.6-9.79q3.2-3,8.4-8.21a196.27,196.27,0,0,1,39-29.79,412.7,412.7,0,0,1,43.4-22.61,87.9,87.9,0,0,1,11.2-4,48.06,48.06,0,0,1,13.6-2,24.87,24.87,0,0,1,14.4,4.4q6.39,4.41,6.4,16.81a69.32,69.32,0,0,1-2.2,15.59,144.48,144.48,0,0,1-7.4,21.6,107.42,107.42,0,0,0-8.2,30.8,249.5,249.5,0,0,0-1.8,27.2c0,2.14.06,4.21.2,6.21s.2,3.79.2,5.4a15.83,15.83,0,0,1-1.2,6.6C1087.85,244.56,1086.11,245.42,1083.45,245.42Z" transform="translate(0 0)"/>
    <path mask="url(#{{ include.id }}__mask-7)" d="M1129.45,257.83a52.73,52.73,0,0,1-6.2-.41,68.79,68.79,0,0,1-7-1.19q-5.19-1.22-5.2-7.61a9.53,9.53,0,0,1,2.8-6.6q2.79-3,8-2.19,4.39.39,14.2-2t21.8-6.41q17.6-6.39,28.8-13.59a70.27,70.27,0,0,0,18.4-16.81q7.59-9.6,7.6-18.4a18.47,18.47,0,0,0-7.6-15.2,89,89,0,0,0-16.4-11.2q-9.6-5.19-18.8-11a64.78,64.78,0,0,1-15.4-13.2q-6.21-7.4-6.2-18.19a23,23,0,0,1,6.8-16.61,59.92,59.92,0,0,1,15.8-11.6,103.13,103.13,0,0,1,15.4-6.6,89.46,89.46,0,0,1,12.8-3,83.53,83.53,0,0,1,12.8-1,58,58,0,0,1,14.6,1.81,42,42,0,0,1,13.4,6.19,14.79,14.79,0,0,1,5.2,5.6,14.32,14.32,0,0,1,1.6,6.4,12.53,12.53,0,0,1-2.6,7.81,8.38,8.38,0,0,1-7,3.39c-2.14,0-4.94-1.06-8.4-3.2h.4a33.83,33.83,0,0,0-20.4-6.4,39.53,39.53,0,0,0-11.6,1.6,117.08,117.08,0,0,0-16.4,5.21q-8,3.19-10,10-1.2,5.19,6.2,11.4a117.91,117.91,0,0,0,18.6,12.39q11.19,6.21,20.8,12.21a41.41,41.41,0,0,1,14.8,14,34.41,34.41,0,0,1,5.6,18.8q0,12.39-9.2,24-14.81,18-30.6,28a157.24,157.24,0,0,1-35.4,16.39q-10.8,3.6-18,5.4A57.19,57.19,0,0,1,1129.45,257.83Z" transform="translate(0 0)"/>
    <path mask="url(#{{ include.id }}__mask-8)" d="M1381.05,251.83q-8.8,0-12.4-7.6a41.71,41.71,0,0,1-3.6-18,106.06,106.06,0,0,1,4-27.61,178.16,178.16,0,0,1,8-24q5.6-13.19,8.8-23.19t3.2-16q0-7.22-4.4-7.21-2.81-.39-11.6,3.61a112.74,112.74,0,0,0-18.4,10.79q-6,4-16,11.81t-20.8,17a259.18,259.18,0,0,0-19.2,18q-11.2,11.61-15.2,21.6-2.4,6-8,6a7.12,7.12,0,0,1-6-3.4q-2.4-3.39-1.6-10.6a239.64,239.64,0,0,1,7.8-32.4q5.79-19.19,13.6-41.4t16.6-44.39q8.79-22.22,17.4-41.4t15.4-32q3.6-6.4,10-6.41a9.16,9.16,0,0,1,6.4,2.6,9.65,9.65,0,0,1,2.8,7.4,48.2,48.2,0,0,1-1,6.81,93.06,93.06,0,0,1-2.8,10.79,37.08,37.08,0,0,1-4.2,9.21,127,127,0,0,1-9.6,13.19,77.77,77.77,0,0,0-10,16q-9.6,20.81-15.6,35.41t-9.4,25.79q-3.4,11.21-5.8,20.4t-5.2,19.21a62.21,62.21,0,0,1,6-8.4q2.79-3.21,5.6-6a178,178,0,0,1,19.2-16.41q11.19-8.39,23.4-16a163.09,163.09,0,0,1,23.2-12.19q11-4.6,17.8-4.61a22.29,22.29,0,0,1,14,5q6.39,5,6.4,19a89.75,89.75,0,0,1-2.6,19.4,147.94,147.94,0,0,1-9.4,26.61,244.56,244.56,0,0,0-9.8,29,194.32,194.32,0,0,0-5.4,24.6,23.34,23.34,0,0,1,4,13.19Q1386.65,251.83,1381.05,251.83Z" transform="translate(0 0)"/>
    <path mask="url(#{{ include.id }}__mask-9)" d="M1451.84,236.62q-6.4,0-12.6-5t-5-16.2a180.73,180.73,0,0,1,4.4-26.4,165.62,165.62,0,0,1,6.4-19.79q3.6-9,7.8-19.4t8.6-25.21q2.4-6.8,10-6.79a14.34,14.34,0,0,1,9.2,3.19q4,3.21,2.4,8.81a184,184,0,0,1-10.4,27.19q-5.21,10.41-9.6,18.21a95.49,95.49,0,0,0-7.4,16.79q-3,9-3.8,23c0,.81,1.73,2.47,5.2,5s5.2,5.4,5.2,8.6c0,2.4-1.34,4.54-4,6.4Q1456.23,236.63,1451.84,236.62ZM1502.24,89c-1.34,1.6-3,1.74-5,.41a14.94,14.94,0,0,1-5-6.21A12.82,12.82,0,0,1,1491,75h.4a39.2,39.2,0,0,1,4-10,42.24,42.24,0,0,1,6.4-8,8.68,8.68,0,0,1,6.4-2.4,10.9,10.9,0,0,1,6.6,2.21,6.49,6.49,0,0,1,3,5.39,7.21,7.21,0,0,1-1.2,3.61,73.6,73.6,0,0,0-4.6,8.39A85.05,85.05,0,0,1,1502.24,89Z" transform="translate(0 0)"/>
  </g>
</svg>
