<svg xmlns="http://www.w3.org/2000/svg" xmlns:xlink="http://www.w3.org/1999/xlink" viewBox="0 0 915 819"><defs><style>.a{fill:url(#a);}</style><linearGradient id="a" x1="230.98" y1="103.17" x2="701.45" y2="775.07" gradientUnits="userSpaceOnUse"><stop offset="0" stop-color="#732300" stop-opacity="0"/><stop offset="0.18" stop-color="#732300" stop-opacity="0.04"/><stop offset="0.37" stop-color="#732300" stop-opacity="0.14"/><stop offset="0.56" stop-color="#732300" stop-opacity="0.32"/><stop offset="0.75" stop-color="#732300" stop-opacity="0.58"/><stop offset="0.95" stop-color="#732300" stop-opacity="0.9"/><stop offset="1" stop-color="#732300"/></linearGradient></defs><path class="a" d="M915,139.69a145,145,0,0,0-29.78-30.5Q825,63.16,735.69,63.13H720.81a100.81,100.81,0,0,0-16.3,1.41,84.9,84.9,0,0,0,12.76-9.92Q722.91,17.78,711.6.06l0-.06H441.46Q381.63,18.52,316.17,51.79,232.51,94.3,153.88,164.46T15.69,338.09Q7.26,352.73,0,368.3V712.87a238.11,238.11,0,0,0,57.5,63.88Q94.58,805.7,148.8,819H354.48q78.63-14.88,162.94-50,24.78,24.21,47.66,50h73.64a895.78,895.78,0,0,0-67.44-75.56,898.8,898.8,0,0,0,184.25-122.6q85.05-73,137.49-168a426.47,426.47,0,0,0,22-46.11ZM822.86,445.8q-48.9,80.79-127.56,146A851.6,851.6,0,0,1,527.35,700.92Q436.63,623,354.43,589q-38.26-15.57-70.86-25.51a223.49,223.49,0,0,0-65.2-9.92,209.68,209.68,0,0,0-41.1,4.25q-36.87,7.11-52.44,25.51T93.65,630.05H92.23Q88,638.56,88,645.65q0,15.6,12,26.22t26.22,10.63q17,0,26.93-17,8.51-15.59,12.05-25.51t26.22-15.59a144.16,144.16,0,0,1,16.3-2.13c6.13-.46,12.51-.71,19.13-.71a331.25,331.25,0,0,1,53.86,5q29.76,5,63.78,19.14,58.11,24.11,126.14,80.78a632.88,632.88,0,0,1-107.71,34.73q-53.88,12.06-99.22,12-78,0-130.39-34.72T54.67,647.06Q28.42,590.39,28.45,525.17q0-94.93,49.6-178.58Q131.9,253.05,203.49,192.1t146-96.37q74.41-35.41,139.61-50.32T594,30.53q29.76,0,46.77,11.34t11.34,11.34c-10.41,0-15.59,2.36-15.59,7.08q0,5.68,12.75,11.34A419.68,419.68,0,0,0,544.35,109.9q-48.19,25.51-89.29,66.61-14.18,14.19-14.17,31.18,0,21.27,17,21.26,9.9,0,19.84-9.92,41.09-41.09,95.67-73.7T687.5,107.06a105,105,0,0,1,17-1.41h17q83.61,0,116.93,46.77t33.31,123.3Q871.76,365,822.86,445.8Z"/></svg>