<svg xmlns="http://www.w3.org/2000/svg" xmlns:xlink="http://www.w3.org/1999/xlink" viewBox="0 0 915 819"><defs><style>.a{fill:url(#a);}</style><linearGradient id="a" x1="231.12" y1="102.68" x2="701.95" y2="775.1" gradientUnits="userSpaceOnUse"><stop offset="0" stop-color="#ffb899" stop-opacity="0"/><stop offset="0.12" stop-color="#ffb899" stop-opacity="0.02"/><stop offset="0.25" stop-color="#ffb899" stop-opacity="0.07"/><stop offset="0.37" stop-color="#ffb899" stop-opacity="0.15"/><stop offset="0.5" stop-color="#ffb899" stop-opacity="0.26"/><stop offset="0.63" stop-color="#ffb899" stop-opacity="0.41"/><stop offset="0.76" stop-color="#ffb899" stop-opacity="0.59"/><stop offset="0.89" stop-color="#ffb899" stop-opacity="0.8"/><stop offset="1" stop-color="#ffb899"/></linearGradient></defs><path class="a" d="M915,139a145.09,145.09,0,0,0-29.64-30.3q-60.25-46-149.52-46.06H721a100.85,100.85,0,0,0-16.3,1.42,85,85,0,0,0,12.76-9.93Q723,17.73,712,0H440Q380.92,18.47,316.31,51.3,232.67,93.83,154,164T15.84,337.6Q7.31,352.41,0,368.13v344q22.14,36.39,57.65,64.1Q95.42,805.76,151,819H352q79.83-14.78,165.53-50.53,25,24.42,48.09,50.53h73.6a898.67,898.67,0,0,0-67.83-76A899.71,899.71,0,0,0,755.68,620.36q85-73,137.48-168A426.66,426.66,0,0,0,915,406.65ZM823,445.32q-48.9,80.78-127.56,146a850.86,850.86,0,0,1-168,109.13q-90.72-77.92-172.91-112Q316.32,572.89,283.71,563a223.49,223.49,0,0,0-65.2-9.92,209.68,209.68,0,0,0-41.1,4.25Q140.54,564.39,125,582.8T93.79,629.57H92.37q-4.25,8.5-4.25,15.59,0,15.62,12,26.22T126.39,682q17,0,26.93-17,8.51-15.59,12.05-25.51t26.21-15.59a144.47,144.47,0,0,1,16.3-2.13c6.14-.46,12.52-.71,19.14-.71q24.07,0,53.86,5t63.78,19.14Q402.76,669.28,470.8,726a633.54,633.54,0,0,1-107.72,34.72q-53.88,12.06-99.21,12.05-78,0-130.39-34.73T54.81,646.58Q28.58,589.91,28.59,524.69q0-95,49.61-178.59Q132,252.56,203.63,191.62t146-96.38Q424,59.83,489.22,44.92T594.11,30q29.75,0,46.77,11.34C652.22,49,656,52.72,652.22,52.72c-10.41,0-15.59,2.37-15.59,7.08q0,5.69,12.75,11.34-56.7,12.77-104.88,38.27T455.21,176Q441,190.21,441,207.21q0,21.25,17,21.26,9.9,0,19.84-9.93,41.1-41.08,95.67-73.7t114.1-38.26a104.84,104.84,0,0,1,17-1.42h17q83.6,0,116.92,46.77T871.9,275.24Q871.9,364.54,823,445.32Z"/></svg>